<svg xmlns="http://www.w3.org/2000/svg" width="229.823" height="77.6" viewBox="0 0 229.823 77.6"><defs><style>.a{fill:#fff;}</style></defs><g transform="translate(0.009)"><g transform="translate(-0.009)"><path class="a" d="M10.889,54.429a10.8,10.8,0,0,1-7.923-2.962A10.529,10.529,0,0,1,0,43.589v-.563A13.328,13.328,0,0,1,1.278,37.1a9.434,9.434,0,0,1,3.613-4.058,10.248,10.248,0,0,1,5.346-1.481,9.122,9.122,0,0,1,7.079,2.829,11.551,11.551,0,0,1,2.577,8.189v2.4H5.928a5.42,5.42,0,0,0,1.7,3.436,5.168,5.168,0,0,0,3.628,1.3,6.309,6.309,0,0,0,5.287-2.458l2.873,3.228a8.886,8.886,0,0,1-3.569,2.962,11.655,11.655,0,0,1-4.961.977Zm-.681-18.067h0a3.628,3.628,0,0,0-2.814,1.17A6.205,6.205,0,0,0,6,40.908h8.145v-.459A4.443,4.443,0,0,0,13.1,37.488a3.806,3.806,0,0,0-2.888-1.066Z" transform="translate(0.009 15.174)"/><path class="a" d="M47.276,43.179a13.2,13.2,0,0,1-2.3,8.115,7.4,7.4,0,0,1-6.205,3.11A6.827,6.827,0,0,1,33.4,52.035V62.4H27.55V32.013h5.42l.207,2.147a6.886,6.886,0,0,1,5.553-2.547,7.4,7.4,0,0,1,6.294,2.962,13.432,13.432,0,0,1,2.251,8.264v.311Zm-5.85-.444h0A8.8,8.8,0,0,0,40.345,38a3.539,3.539,0,0,0-3.154-1.659,3.836,3.836,0,0,0-3.791,2.1v9a3.9,3.9,0,0,0,3.836,2.177C40.019,49.621,41.426,47.325,41.426,42.735Z" transform="translate(13.263 15.199)"/><path class="a" d="M54.521,37.485a16.912,16.912,0,0,0-2.118-.163,4.309,4.309,0,0,0-4.354,2.251V53.908H42.2V31.991h5.524l.1,2.621a5.435,5.435,0,0,1,4.887-2.962,6.013,6.013,0,0,1,1.822.267v5.627Z" transform="translate(20.309 15.221)"/><path class="a" d="M61.366,54.415a10.766,10.766,0,0,1-7.849-2.962,10.485,10.485,0,0,1-2.962-7.878v-.563a13.328,13.328,0,0,1,1.274-5.924,9.374,9.374,0,0,1,3.628-4.013,10.159,10.159,0,0,1,5.331-1.481,9.108,9.108,0,0,1,7.079,2.829,11.566,11.566,0,0,1,2.518,8.145v2.4H56.419A5.361,5.361,0,0,0,58.137,48.4a5.109,5.109,0,0,0,3.613,1.3,6.309,6.309,0,0,0,5.287-2.458l2.873,3.228a8.678,8.678,0,0,1-3.569,2.962,11.655,11.655,0,0,1-4.976,1.051ZM60.7,36.348h0a3.658,3.658,0,0,0-2.829,1.17,6.205,6.205,0,0,0-1.392,3.377h8.145v-.459a4.339,4.339,0,0,0-1.051-2.962A3.776,3.776,0,0,0,60.7,36.407Z" transform="translate(24.319 15.188)"/><path class="a" d="M77.283,47.875a1.9,1.9,0,0,0-1.051-1.688,11.669,11.669,0,0,0-3.421-1.1q-7.819-1.644-7.819-6.649a6.042,6.042,0,0,1,2.429-4.872,9.744,9.744,0,0,1,6.323-1.955,10.485,10.485,0,0,1,6.679,1.97,6.19,6.19,0,0,1,2.5,5.094H77a2.858,2.858,0,0,0-.8-2.073,3.451,3.451,0,0,0-2.532-.815,3.539,3.539,0,0,0-2.3.666,2.133,2.133,0,0,0-.755,1.659,1.792,1.792,0,0,0,.933,1.57,9.448,9.448,0,0,0,3.11,1.037,24.169,24.169,0,0,1,3.687.977c3.08,1.125,4.635,3.1,4.635,5.924a5.731,5.731,0,0,1-2.577,4.857,11.137,11.137,0,0,1-6.649,1.925,11.388,11.388,0,0,1-4.887-.992,8.012,8.012,0,0,1-3.347-2.7A6.22,6.22,0,0,1,64.31,47h5.539A3.065,3.065,0,0,0,71,49.386a4.546,4.546,0,0,0,2.962.829,4.206,4.206,0,0,0,2.532-.637,1.97,1.97,0,0,0,.859-1.673Z" transform="translate(30.942 15.197)"/><path class="a" d="M90.578,47.875a1.9,1.9,0,0,0-1.066-1.688,11.669,11.669,0,0,0-3.421-1.1q-7.819-1.644-7.819-6.649A6.042,6.042,0,0,1,80.7,33.569a9.744,9.744,0,0,1,6.383-1.955,10.485,10.485,0,0,1,6.679,1.97,6.161,6.161,0,0,1,2.5,5.094H90.341a2.873,2.873,0,0,0-.815-2.073,3.451,3.451,0,0,0-2.444-.815,3.539,3.539,0,0,0-2.3.666,2.118,2.118,0,0,0-.874,1.659,1.777,1.777,0,0,0,.918,1.57,9.448,9.448,0,0,0,3.11,1.037,24.168,24.168,0,0,1,3.687.977q4.65,1.688,4.635,5.924a5.731,5.731,0,0,1-2.577,4.857,11.092,11.092,0,0,1-6.6,1.925,11.507,11.507,0,0,1-4.9-.992,8.1,8.1,0,0,1-3.347-2.7A6.22,6.22,0,0,1,77.59,47h5.553A2.962,2.962,0,0,0,84.3,49.386a4.443,4.443,0,0,0,2.873.829,4.221,4.221,0,0,0,2.547-.637,2.014,2.014,0,0,0,.859-1.673Z" transform="translate(37.328 15.197)"/><path class="a" d="M91.83,45.76a2.962,2.962,0,0,1,.948-2.266,3.332,3.332,0,0,1,2.355-.874,3.406,3.406,0,0,1,2.384.874,3.182,3.182,0,0,1,0,4.5,3.717,3.717,0,0,1-4.754,0A2.962,2.962,0,0,1,91.83,45.76Z" transform="translate(44.176 20.496)"/><path class="a" d="M108.077,49.6a3.865,3.865,0,0,0,2.636-.889,3.169,3.169,0,0,0,1.051-2.369h5.494a7.4,7.4,0,0,1-1.214,4.073,7.864,7.864,0,0,1-3.273,2.962A10.174,10.174,0,0,1,108.2,54.4a9.537,9.537,0,0,1-7.4-2.962,11.847,11.847,0,0,1-2.784-8.352V42.7a11.655,11.655,0,0,1,2.7-8.086,9.374,9.374,0,0,1,7.4-2.962A9.241,9.241,0,0,1,114.7,34a8.2,8.2,0,0,1,2.562,6.175h-5.479a4.087,4.087,0,0,0-1.051-2.784,3.939,3.939,0,0,0-5.776.415,8.648,8.648,0,0,0-1.037,4.843v.607a8.693,8.693,0,0,0,1.037,4.872,3.554,3.554,0,0,0,3.14,1.481Z" transform="translate(47.137 15.216)"/><path class="a" d="M111.53,42.779a13.135,13.135,0,0,1,1.259-5.82A9.256,9.256,0,0,1,116.4,33a10.574,10.574,0,0,1,5.479-1.392,9.981,9.981,0,0,1,7.242,2.71,10.87,10.87,0,0,1,3.14,7.4v1.481a11.462,11.462,0,0,1-2.829,8.1,9.759,9.759,0,0,1-7.553,3.051,9.907,9.907,0,0,1-7.568-3.036,11.7,11.7,0,0,1-2.829-8.278v-.252Zm5.924.415h0a8.16,8.16,0,0,0,1.17,4.769,3.865,3.865,0,0,0,3.362,1.659,3.924,3.924,0,0,0,3.332-1.629,9.078,9.078,0,0,0,1.185-5.228,8.234,8.234,0,0,0-1.185-4.754,3.924,3.924,0,0,0-3.376-1.673,3.806,3.806,0,0,0-3.317,1.673,9.093,9.093,0,0,0-1.17,5.183Z" transform="translate(53.621 15.199)"/><path class="a" d="M132.392,32.018l.178,2.458a7.686,7.686,0,0,1,6.294-2.858,5.835,5.835,0,0,1,5.82,3.347,7.508,7.508,0,0,1,6.575-3.347,6.575,6.575,0,0,1,5.316,2.073,9.6,9.6,0,0,1,1.733,6.249V53.935h-5.924V39.926a4.25,4.25,0,0,0-.726-2.725,3.228,3.228,0,0,0-2.577-.859,3.628,3.628,0,0,0-3.643,2.518V53.935h-5.85V39.955a4.161,4.161,0,0,0-.755-2.769,3.273,3.273,0,0,0-2.547-.844,3.791,3.791,0,0,0-3.613,2.073v15.52H126.75V32.018Z" transform="translate(60.97 15.194)"/><path class="a" d="M23.046,40.19l-2.592,4.161a1.644,1.644,0,0,0,0,1.777L23,50.275h6.249L23.046,40.264Z" transform="translate(9.726 19.328)"/><path class="a" d="M22.946,41.706,29.24,31.68H22.991l-2.473,4.235a1.688,1.688,0,0,0,0,1.733l2.414,4.058Z" transform="translate(9.766 15.235)"/><path class="a" d="M19.606,42.328h5.539L18.451,31.68H14.112a1.051,1.051,0,0,0-.889,1.614L18.54,41.75A1.259,1.259,0,0,0,19.606,42.328Z" transform="translate(6.295 15.235)"/><path class="a" d="M19.486,39.91a1.274,1.274,0,0,0-1.066.592l-5.2,8.2a1.066,1.066,0,0,0,.889,1.629H18.45l6.6-10.366Z" transform="translate(6.296 19.193)"/><path class="a" d="M6.724,24.619V34.808H.8V5.871H12.055a12.958,12.958,0,0,1,5.731,1.2,8.737,8.737,0,0,1,3.806,3.436,9.478,9.478,0,0,1,1.333,5.005,8.323,8.323,0,0,1-2.962,6.709,12.114,12.114,0,0,1-8.071,2.458Zm0-4.828h5.331a5.183,5.183,0,0,0,3.613-1.125A4.013,4.013,0,0,0,16.912,15.5a4.783,4.783,0,0,0-1.259-3.436A4.62,4.62,0,0,0,12.2,10.7H6.724Z" transform="translate(0.399 2.822)"/><path class="a" d="M29.234,16.41a15.861,15.861,0,0,0-2.058-.163,4.221,4.221,0,0,0-4.324,2.207V32.523h-5.7V11.02h5.435l.148,2.562a5.346,5.346,0,0,1,4.8-2.962,5.924,5.924,0,0,1,1.792.267Z" transform="translate(8.262 5.107)"/><path class="a" d="M25.006,21.561a12.81,12.81,0,0,1,1.229-5.7,9.122,9.122,0,0,1,3.554-3.88A10.366,10.366,0,0,1,35.165,10.6a9.789,9.789,0,0,1,7.108,2.666,10.677,10.677,0,0,1,3.065,7.242v1.481a11.2,11.2,0,0,1-2.769,7.938,9.567,9.567,0,0,1-7.4,2.962,9.611,9.611,0,0,1-7.4-2.962,11.433,11.433,0,0,1-2.755-8.086Zm5.746.4h0a8.041,8.041,0,0,0,1.155,4.694,4.147,4.147,0,0,0,6.56,0,8.752,8.752,0,0,0,1.155-5.094,7.982,7.982,0,0,0-1.17-4.665,3.821,3.821,0,0,0-3.3-1.644A3.747,3.747,0,0,0,31.892,16.9a8.885,8.885,0,0,0-1.155,5.08Z" transform="translate(12.031 5.095)"/><path class="a" d="M49.261,28.282a3.7,3.7,0,0,0,2.577-.815,3.036,3.036,0,0,0,1.037-2.325h5.391a7.4,7.4,0,0,1-1.2,4.013,7.775,7.775,0,0,1-3.2,2.755,9.907,9.907,0,0,1-4.443,1.007,9.359,9.359,0,0,1-7.286-2.962,11.581,11.581,0,0,1-2.651-8.1v-.311a11.492,11.492,0,0,1,2.636-7.938,9.241,9.241,0,0,1,7.256-2.962,9.078,9.078,0,0,1,6.472,2.3,8.189,8.189,0,0,1,2.473,6.116h-5.45a3.924,3.924,0,0,0-1.037-2.725,3.821,3.821,0,0,0-5.642.415,8.323,8.323,0,0,0-1.037,4.739v.607a8.5,8.5,0,0,0,1.022,4.739,3.5,3.5,0,0,0,3.08,1.481Z" transform="translate(18.994 5.113)"/><path class="a" d="M66.246,30.216a7.212,7.212,0,0,1-5.924,2.577,6.783,6.783,0,0,1-5.272-1.984,8.515,8.515,0,0,1-1.866-5.82V10.89H58.93V24.8c0,2.251,1.022,3.362,3.065,3.362a4.132,4.132,0,0,0,4.013-2.029V10.89H71.77v21.5H66.365Z" transform="translate(25.585 5.237)"/><path class="a" d="M79.644,16.41a16.29,16.29,0,0,0-2.073-.163,4.221,4.221,0,0,0-4.28,2.207V32.523H67.56V11.02h5.42l.163,2.562a5.316,5.316,0,0,1,4.783-2.962,5.924,5.924,0,0,1,1.792.267V16.41Z" transform="translate(32.505 5.107)"/><path class="a" d="M86.376,32.927a10.544,10.544,0,0,1-7.7-2.962,10.366,10.366,0,0,1-2.962-7.73v-.563a13.091,13.091,0,0,1,1.259-5.79A9.182,9.182,0,0,1,80.586,12a9.952,9.952,0,0,1,5.228-1.377,8.885,8.885,0,0,1,6.945,2.784A11.314,11.314,0,0,1,95.291,21.3v2.34H81.533a5.272,5.272,0,0,0,1.673,3.376,5.035,5.035,0,0,0,3.554,1.274,6.205,6.205,0,0,0,5.183-2.4l2.829,3.154a8.6,8.6,0,0,1-3.51,2.873,11.462,11.462,0,0,1-4.887,1.022Zm-.652-17.667h0a3.569,3.569,0,0,0-2.769,1.155,5.924,5.924,0,0,0-1.362,3.317h7.982v-.459a4.265,4.265,0,0,0-1.037-2.962A3.687,3.687,0,0,0,85.724,15.259Z" transform="translate(36.421 5.103)"/><path class="a" d="M95.361,11.027l.178,2.4a7.567,7.567,0,0,1,6.19-2.8,5.731,5.731,0,0,1,5.7,3.288,7.4,7.4,0,0,1,6.457-3.288,6.412,6.412,0,0,1,5.213,2.044,9.374,9.374,0,0,1,1.7,6.131V32.53h-5.761V18.787a4.147,4.147,0,0,0-.711-2.68,3.2,3.2,0,0,0-2.532-.844,3.569,3.569,0,0,0-3.569,2.473V32.545H102.5V18.8a4.013,4.013,0,0,0-.74-2.71,3.214,3.214,0,0,0-2.5-.829,3.747,3.747,0,0,0-3.539,2.029V32.53H90v-21.5Z" transform="translate(43.296 5.1)"/><path class="a" d="M122.836,32.946a10.514,10.514,0,0,1-7.7-2.962,10.366,10.366,0,0,1-2.962-7.73v-.563a13.091,13.091,0,0,1,1.244-5.79,9.374,9.374,0,0,1,3.554-3.939,9.966,9.966,0,0,1,5.242-1.377,8.886,8.886,0,0,1,6.946,2.784,11.314,11.314,0,0,1,2.532,7.893V23.6h-13.7a5.287,5.287,0,0,0,1.688,3.376,4.991,4.991,0,0,0,3.539,1.274,6.19,6.19,0,0,0,5.183-2.4l2.769,3.214a8.545,8.545,0,0,1-3.451,2.873,11.551,11.551,0,0,1-4.887,1.022Zm-.666-17.667h0a3.584,3.584,0,0,0-2.769,1.155,6.057,6.057,0,0,0-1.362,3.317h8v-.459A4.265,4.265,0,0,0,125,16.33a3.717,3.717,0,0,0-2.829-1.051Z" transform="translate(53.955 5.084)"/><path class="a" d="M131.76,11.048l.178,2.488a7.508,7.508,0,0,1,6.19-2.962,6.205,6.205,0,0,1,5.094,2.118,9.374,9.374,0,0,1,1.718,5.924V32.507h-5.776V18.764a3.7,3.7,0,0,0-.8-2.651,3.569,3.569,0,0,0-2.651-.829,3.939,3.939,0,0,0-3.628,2.073V32.551H126.34v-21.5Z" transform="translate(60.773 5.079)"/><path class="a" d="M148.266,7.32v5.287h3.673v4.221h-3.673V27.579a2.533,2.533,0,0,0,.459,1.718,2.3,2.3,0,0,0,1.747.518,8.234,8.234,0,0,0,1.688-.148v4.354a11.936,11.936,0,0,1-3.48.518q-6.042,0-6.161-6.1V16.827h-3.14V12.607h3.14V7.32Z" transform="translate(67.044 3.52)"/><path class="a" d="M157,1.29V16.6l-5.6,5.45V6.9L157,1.29Z" transform="translate(72.825 0.62)"/><path class="a" d="M139.81,5.613h15.165L160.572,0h-15L139.81,5.613Z" transform="translate(67.251)"/></g></g></svg>